<svg xmlns="http://www.w3.org/2000/svg" viewBox="0 0 32 32">
  <defs>
    <linearGradient id="bg" x1="0" y1="0" x2="1" y2="1">
      <stop offset="0%" stop-color="#1e3a5f"/>
      <stop offset="100%" stop-color="#0f172a"/>
    </linearGradient>
    <linearGradient id="fl" x1="0.5" y1="0" x2="0.5" y2="1">
      <stop offset="0%" stop-color="#93c5fd"/>
      <stop offset="100%" stop-color="#2563eb"/>
    </linearGradient>
  </defs>

  <!-- Fond carré arrondi navy -->
  <rect width="32" height="32" rx="7" fill="url(#bg)"/>

  <!-- Flamme stylisée -->
  <path d="
    M16 3
    C17 6 21 8 21 13
    C21 13 19.5 11 18 12.5
    C19 14.5 19.5 17 18.5 19.5
    C17.5 22 14.5 23 12.5 21
    C10.5 19 11 16 12.5 14
    C12.5 14 11.5 16.5 13 17.5
    C13.5 13.5 11 11 12 8
    C13 10 14 11 14.5 9.5
    C14.5 7 14 4 16 3Z
  " fill="url(#fl)"/>

  <!-- Petite ligne de chaleur en bas -->
  <rect x="10" y="26" width="12" height="1.5" rx="0.75" fill="#2563eb" opacity="0.6"/>
  <rect x="12" y="29" width="8"  height="1"   rx="0.5"  fill="#1d4ed8" opacity="0.4"/>
</svg>
